<svg width="64" height="64" xmlns="http://www.w3.org/2000/svg">

 <title/>
 <g>
  <title>background</title>
  <rect fill="none" id="canvas_background" height="402" width="582" y="-1" x="-1"/>
 </g>
 <g>
  <title fill="#ffffff">Layer 1</title>
  <path fill="#ffffff" id="svg_5" d="m61,44.82a4,4 0 0 0 -3.130001,0l-13.25,5.09a5,5 0 0 0 0.360001,-2.400002a5.14,5.14 0 0 0 -5.149998,-4.509998l-10.830002,0a26.190001,26.190001 0 0 1 -5.42,-0.529999a23.059999,23.059999 0 0 0 -4.58,-0.470001c-8.4,0 -14,5.200001 -16.59,8.290001a10.49,10.49 0 0 0 -2.41,6.709999l0,5a2,2 0 0 0 2,2l14.93,0a2,2 0 0 0 1.33,-0.509998c0.65,-0.580002 3.110001,-2.490002 7.74,-2.490002l4.129999,0a49.09,49.09 0 0 0 19.340002,-4l11.309998,-4.82a4.08,4.08 0 0 0 2.350002,-5.110001a3.94,3.94 0 0 0 -2.130001,-2.25zm-1,5.57l-11.310001,4.82a47,47 0 0 1 -18.559999,3.790001l-4.129999,0c-5.200001,0 -8.08,2.110001 -9.07,3l-14.93,0l0,-5a8.44,8.44 0 0 1 1.94,-5.419998c2.89,-3.460003 7.85,-7.580002 15.06,-7.580002a20.870001,20.870001 0 0 1 4.219999,0.439999a28.549999,28.549999 0 0 0 5.780001,0.560001l10.830002,0a3.13,3.13 0 0 1 3.169998,2.700001a3,3 0 0 1 -0.779999,2.299999a3,3 0 0 1 -2.220001,1l-15,0a13,13 0 0 0 -5.450001,1.110001a1,1 0 0 0 -0.439999,1.34a1,1 0 0 0 0.889999,0.549999a0.93,0.93 0 0 0 0.450001,-0.110001a11.31,11.31 0 0 1 4.549999,-0.889999l15,0a11.8,11.8 0 0 0 4.23,-0.790001l14.360001,-5.559998a2,2 0 0 1 2.66,1.149998a2.11,2.11 0 0 1 -1.25,2.59z" class="cls-1"/>
  <path fill="#ffffff" id="svg_6" d="m44,9.18l0,-2.52a1,1 0 0 0 -1,-1l0,-2.14a3.51,3.51 0 0 0 -3.5,-3.52l-15,0a3.51,3.51 0 0 0 -3.5,3.52l0,34a3.51,3.51 0 0 0 3.5,3.48l15,0a3.51,3.51 0 0 0 3.5,-3.52l0,-21a1,1 0 0 0 1,-1l0,-2.48a1,1 0 0 0 -1,-1l0,-1.82a1,1 0 0 0 1,-1zm-19.5,-7.18l15,0a1.51,1.51 0 0 1 1.41,1l-1.169998,0a3,3 0 0 0 -2.280003,1.1a2.07,2.07 0 0 1 -1.59,0.8l-7.74,0a2.07,2.07 0 0 1 -1.589998,-0.8a3,3 0 0 0 -2.280001,-1.1l-1.17,0a1.51,1.51 0 0 1 1.41,-1zm15,37l-15,0a1.51,1.51 0 0 1 -1.5,-1.52l0,-33.48l1.26,0a2.07,2.07 0 0 1 1.59,0.8a3,3 0 0 0 2.279999,1.1l7.74,0a3,3 0 0 0 2.280003,-1.08a2.07,2.07 0 0 1 1.59,-0.82l1.259998,0l0,33.48a1.51,1.51 0 0 1 -1.5,1.52z" class="cls-1"/>
 </g>
</svg>