<svg width="64" height="64" xmlns="http://www.w3.org/2000/svg">

 <title/>
 <g>
  <title>background</title>
  <rect fill="none" id="canvas_background" height="402" width="582" y="-1" x="-1"/>
 </g>
 <g>
  <title fill="#ffffff">Layer 1</title>
  <path fill="#ffffff" id="svg_5" d="m49.752319,50.355373a2.421471,2.845595 0 0 0 -1.894806,0l-8.021118,3.621021a3.026839,3.556993 0 0 0 0.21793,-1.707359a3.11159,3.656589 0 0 0 -3.117641,-3.208408l-6.556133,0a15.854582,18.631533 0 0 1 -3.281094,-0.377041a13.95978,16.404854 0 0 0 -2.772585,-0.334358c-5.085089,0 -8.475147,3.699276 -10.043051,5.897499a6.350307,7.462573 0 0 0 -1.458937,4.773483l0,3.556992a1.210735,1.422797 0 0 0 1.210737,1.422798l9.038139,0a1.210735,1.422797 0 0 0 0.80514,-0.362812c0.39349,-0.412613 1.882692,-1.771385 4.685545,-1.771385l2.500168,0a29.717503,34.922562 0 0 0 11.707817,-2.845592l6.846703,-3.428944a2.4699,2.902507 0 0 0 1.422615,-3.635246a2.385149,2.802911 0 0 0 -1.289429,-1.600647zm-0.60537,3.96249l-6.84671,3.42894a28.452284,33.435738 0 0 1 -11.235626,2.696205l-2.500168,0c-3.147913,0 -4.891371,1.501049 -5.490685,2.134193l-9.038139,0l0,-3.556992a5.109303,6.004205 0 0 1 1.174414,-3.855782c1.749512,-2.461441 4.752134,-5.392403 9.116837,-5.392403a12.634025,14.846891 0 0 1 2.554651,0.313015a17.283249,20.310432 0 0 0 3.499027,0.398384l6.556133,0a1.894801,2.226678 0 0 1 1.919018,1.920776a1.816103,2.134196 0 0 1 -0.472191,1.636215a1.816103,2.134196 0 0 1 -1.343918,0.711403l-9.080513,0a7.869781,9.248183 0 0 0 -3.299257,0.78965a0.605368,0.711399 0 0 0 -0.266359,0.953278a0.605368,0.711399 0 0 0 0.538776,0.391266a0.562992,0.661601 0 0 0 0.272415,-0.078255a6.846709,8.045919 0 0 1 2.754425,-0.633144l9.080513,0a7.143339,8.394505 0 0 0 2.560707,-0.562004l8.693081,-3.955376a1.210735,1.422797 0 0 1 1.610275,0.818108a1.277326,1.501051 0 0 1 -0.756706,1.842522z" class="cls-1"/>
  <path fill="#ffffff" id="svg_6" d="m46.277794,11.217562l0,-2.861466a1.224293,1.135502 0 0 0 -1.224293,-1.135501l0,-2.429974a4.297269,3.985612 0 0 0 -4.285027,-3.996967l-18.364399,0a4.297269,3.985612 0 0 0 -4.285027,3.996967l0,38.607058a4.297269,3.985612 0 0 0 4.285027,3.951546l18.364399,0a4.297269,3.985612 0 0 0 4.285027,-3.996967l0,-23.845526a1.224293,1.135502 0 0 0 1.224293,-1.135502l0,-2.816051a1.224293,1.135502 0 0 0 -1.224293,-1.135503l0,-2.066613a1.224293,1.135502 0 0 0 1.224293,-1.135501zm-23.873718,-8.152905l18.364399,0a1.848683,1.714608 0 0 1 1.726254,1.135503l-1.432423,0a3.67288,3.406506 0 0 0 -2.791393,1.249052a2.534287,2.350489 0 0 1 -1.946625,0.908401l-9.476028,0a2.534287,2.350489 0 0 1 -1.946623,-0.908401a3.67288,3.406506 0 0 0 -2.791389,-1.249052l-1.432425,0a1.848683,1.714608 0 0 1 1.726254,-1.135503zm18.364399,42.013564l-18.364399,0a1.848683,1.714608 0 0 1 -1.836437,-1.725964l0,-38.016596l1.542608,0a2.534287,2.350489 0 0 1 1.946627,0.908402a3.67288,3.406506 0 0 0 2.791386,1.249052l9.476028,0a3.67288,3.406506 0 0 0 2.791393,-1.226342a2.534287,2.350489 0 0 1 1.946625,-0.931112l1.542606,0l0,38.016596a1.848683,1.714608 0 0 1 -1.836437,1.725964z" class="cls-1"/>
 </g>
</svg>